<?xml version="1.0" encoding="UTF-8"?> <svg xmlns="http://www.w3.org/2000/svg" xmlns:xlink="http://www.w3.org/1999/xlink" version="1.1" id="Layer_1" x="0px" y="0px" viewBox="0 0 300 150" xml:space="preserve"> <g> <g> <path fill="#ED1C24" d="M215.957,127.192H29.009c-13.987,0-25.325-11.338-25.325-25.325V78.442 c0-13.987,11.338-25.325,25.325-25.325h186.948V127.192z"></path> <g> <path fill="#ED1C24" d="M240.812,43.702c-25.655,0-46.452,20.798-46.452,46.453c0,25.655,20.797,46.452,46.452,46.452 c25.655,0,46.452-20.798,46.452-46.452C287.264,64.5,266.467,43.702,240.812,43.702z M272.44,95.351l-23.198,13.393 l-23.198,13.393c-3.191,1.843-7.18-0.46-7.18-4.146V91.205V64.418c0-3.685,3.989-5.988,7.18-4.146l23.198,13.393l23.198,13.393 C275.632,88.902,275.632,93.509,272.44,95.351z"></path> <path fill="#FFFFFF" d="M240.812,43.702c25.655,0,46.452,20.798,46.452,46.453c0,25.655-20.798,46.452-46.452,46.452 c-25.655,0-46.452-20.798-46.452-46.452C194.36,64.5,215.157,43.702,240.812,43.702L240.812,43.702z M223.658,122.786 c0.797,0,1.615-0.203,2.386-0.648l23.198-13.393l23.198-13.393c3.192-1.843,3.192-6.449,0-8.292l-23.198-13.393l-23.198-13.393 c-0.771-0.445-1.589-0.649-2.386-0.649c-2.501,0-4.795,2-4.795,4.794v26.787v26.787 C218.864,120.787,221.157,122.786,223.658,122.786L223.658,122.786z M240.812,33.923c-31.077,0-56.232,25.15-56.232,56.232 c0,31.077,25.15,56.232,56.232,56.232c31.077,0,56.231-25.15,56.231-56.232C297.044,59.078,271.894,33.923,240.812,33.923 L240.812,33.923z"></path> </g> </g> </g> <g> <path fill="#FFFFFF" d="M59.828,62.424v12.59l-9.208,45.194H36.272l10.261-47.398H32.274V62.424H59.828z"></path> <path fill="#FFFFFF" d="M79.951,108.431v11.778H69.065v-11.778H79.951z"></path> <path fill="#FFFFFF" d="M122.238,110.358v9.851h-31.73l0.009-8.245c9.399-15.37,14.984-24.882,16.757-28.535 c1.772-3.652,2.659-6.501,2.659-8.548c0-1.57-0.269-2.742-0.804-3.516c-0.537-0.773-1.353-1.16-2.448-1.16 c-1.097,0-1.912,0.428-2.448,1.285c-0.537,0.856-0.804,2.558-0.804,5.104v5.497h-12.92v-2.106c0-3.235,0.167-5.787,0.5-7.655 c0.333-1.868,1.154-3.706,2.462-5.515c1.309-1.808,3.01-3.176,5.104-4.104c2.093-0.928,4.604-1.392,7.531-1.392 c5.734,0,10.071,1.422,13.01,4.265c2.938,2.844,4.408,6.442,4.408,10.797c0,3.308-0.827,6.806-2.481,10.493 c-1.654,3.688-6.526,11.517-14.616,23.485H122.238z"></path> <path fill="#FFFFFF" d="M164.561,62.424v37.762h4.105v9.851h-4.105v10.172h-14.418v-10.172H133.01v-9.851l12.457-37.762H164.561z M150.143,100.187V75.595l-6.372,24.592H150.143z"></path> </g> <path fill="#FFFFFF" d="M228.211,41.691l-1.442,0.932c-2.54,1.642-5.963,0.908-7.605-1.633l-15.419-23.849 c-1.642-2.54-0.908-5.963,1.633-7.605l1.442-0.932c2.54-1.642,5.963-0.908,7.605,1.633l15.419,23.849 C231.486,36.626,230.752,40.049,228.211,41.691z"></path> <path fill="#FFFFFF" d="M240.807,42.12l-3.268-1.335c-2.128-0.869-3.159-3.322-2.289-5.45l10.538-25.803 c0.869-2.128,3.322-3.159,5.45-2.289l3.268,1.335c2.128,0.869,3.159,3.322,2.289,5.45l-10.538,25.803 C245.388,41.959,242.935,42.989,240.807,42.12z"></path> </svg> 